<mxfile host="app.diagrams.net" modified="2020-07-17T06:47:49.032Z" agent="5.0 (Macintosh; Intel Mac OS X 10_15_5) AppleWebKit/537.36 (KHTML, like Gecko) Chrome/83.0.4103.116 Safari/537.36" etag="U3uxYKSN0XZTy4VWkjjo" version="13.4.2" type="github">
  <diagram id="czfhkN5AWZ91nqbuj84y" name="Page-1">
    <mxGraphModel dx="2066" dy="1105" grid="1" gridSize="10" guides="1" tooltips="1" connect="1" arrows="1" fold="1" page="1" pageScale="1" pageWidth="827" pageHeight="1169" math="0" shadow="0">
      <root>
        <mxCell id="0" />
        <mxCell id="1" parent="0" />
        <mxCell id="sCZkjAEtWjabLYPIgtKf-26" style="edgeStyle=orthogonalEdgeStyle;rounded=0;orthogonalLoop=1;jettySize=auto;html=1;entryX=0;entryY=0.5;entryDx=0;entryDy=0;strokeWidth=2;fillColor=#d5e8d4;strokeColor=#82b366;" parent="1" source="sCZkjAEtWjabLYPIgtKf-30" target="sCZkjAEtWjabLYPIgtKf-37" edge="1">
          <mxGeometry relative="1" as="geometry" />
        </mxCell>
        <mxCell id="sCZkjAEtWjabLYPIgtKf-27" style="edgeStyle=orthogonalEdgeStyle;rounded=0;orthogonalLoop=1;jettySize=auto;html=1;entryX=-0.009;entryY=0.75;entryDx=0;entryDy=0;entryPerimeter=0;strokeWidth=2;fillColor=#d5e8d4;strokeColor=#82b366;" parent="1" source="sCZkjAEtWjabLYPIgtKf-30" target="sCZkjAEtWjabLYPIgtKf-39" edge="1">
          <mxGeometry relative="1" as="geometry" />
        </mxCell>
        <mxCell id="sCZkjAEtWjabLYPIgtKf-28" style="edgeStyle=orthogonalEdgeStyle;rounded=0;orthogonalLoop=1;jettySize=auto;html=1;entryX=0;entryY=0.5;entryDx=0;entryDy=0;strokeWidth=2;fillColor=#d5e8d4;strokeColor=#82b366;" parent="1" source="sCZkjAEtWjabLYPIgtKf-30" target="sCZkjAEtWjabLYPIgtKf-45" edge="1">
          <mxGeometry relative="1" as="geometry">
            <Array as="points">
              <mxPoint x="960" y="200" />
              <mxPoint x="960" y="320" />
            </Array>
          </mxGeometry>
        </mxCell>
        <mxCell id="sCZkjAEtWjabLYPIgtKf-29" style="edgeStyle=orthogonalEdgeStyle;rounded=0;orthogonalLoop=1;jettySize=auto;html=1;strokeWidth=2;fillColor=#d5e8d4;strokeColor=#82b366;" parent="1" source="sCZkjAEtWjabLYPIgtKf-30" target="sCZkjAEtWjabLYPIgtKf-49" edge="1">
          <mxGeometry relative="1" as="geometry">
            <Array as="points">
              <mxPoint x="960" y="200" />
              <mxPoint x="960" y="400" />
            </Array>
          </mxGeometry>
        </mxCell>
        <mxCell id="sCZkjAEtWjabLYPIgtKf-30" value="Parent Page Table" style="rounded=0;whiteSpace=wrap;html=1;fillColor=#d5e8d4;strokeColor=#82b366;" parent="1" vertex="1">
          <mxGeometry x="800" y="170" width="120" height="60" as="geometry" />
        </mxCell>
        <mxCell id="sCZkjAEtWjabLYPIgtKf-31" style="edgeStyle=orthogonalEdgeStyle;rounded=0;orthogonalLoop=1;jettySize=auto;html=1;entryX=-0.027;entryY=0.8;entryDx=0;entryDy=0;entryPerimeter=0;strokeWidth=2;fillColor=#f8cecc;strokeColor=#b85450;" parent="1" source="sCZkjAEtWjabLYPIgtKf-35" target="sCZkjAEtWjabLYPIgtKf-37" edge="1">
          <mxGeometry relative="1" as="geometry">
            <Array as="points">
              <mxPoint x="940" y="340" />
              <mxPoint x="940" y="172" />
            </Array>
          </mxGeometry>
        </mxCell>
        <mxCell id="sCZkjAEtWjabLYPIgtKf-32" style="edgeStyle=orthogonalEdgeStyle;rounded=0;orthogonalLoop=1;jettySize=auto;html=1;entryX=0;entryY=0.5;entryDx=0;entryDy=0;strokeWidth=2;fillColor=#f8cecc;strokeColor=#b85450;" parent="1" source="sCZkjAEtWjabLYPIgtKf-35" target="sCZkjAEtWjabLYPIgtKf-39" edge="1">
          <mxGeometry relative="1" as="geometry">
            <Array as="points">
              <mxPoint x="940" y="340" />
              <mxPoint x="940" y="200" />
            </Array>
          </mxGeometry>
        </mxCell>
        <mxCell id="sCZkjAEtWjabLYPIgtKf-33" style="edgeStyle=orthogonalEdgeStyle;rounded=0;orthogonalLoop=1;jettySize=auto;html=1;entryX=0;entryY=0.75;entryDx=0;entryDy=0;entryPerimeter=0;strokeWidth=2;fillColor=#f8cecc;strokeColor=#b85450;" parent="1" source="sCZkjAEtWjabLYPIgtKf-35" target="sCZkjAEtWjabLYPIgtKf-45" edge="1">
          <mxGeometry relative="1" as="geometry" />
        </mxCell>
        <mxCell id="sCZkjAEtWjabLYPIgtKf-34" style="edgeStyle=orthogonalEdgeStyle;rounded=0;orthogonalLoop=1;jettySize=auto;html=1;strokeWidth=2;fillColor=#f8cecc;strokeColor=#b85450;" parent="1" source="sCZkjAEtWjabLYPIgtKf-35" edge="1">
          <mxGeometry relative="1" as="geometry">
            <Array as="points">
              <mxPoint x="940" y="340" />
              <mxPoint x="940" y="360" />
              <mxPoint x="1012" y="360" />
            </Array>
            <mxPoint x="1012" y="360" as="targetPoint" />
          </mxGeometry>
        </mxCell>
        <mxCell id="Y8DeE2g3nCDuZwqF8ChS-1" style="edgeStyle=orthogonalEdgeStyle;rounded=0;orthogonalLoop=1;jettySize=auto;html=1;strokeWidth=2;fillColor=#f8cecc;strokeColor=#b85450;" edge="1" parent="1" target="sCZkjAEtWjabLYPIgtKf-43">
          <mxGeometry relative="1" as="geometry">
            <mxPoint x="940" y="340" as="sourcePoint" />
          </mxGeometry>
        </mxCell>
        <mxCell id="sCZkjAEtWjabLYPIgtKf-35" value="Child Page Table" style="rounded=0;whiteSpace=wrap;html=1;fillColor=#f8cecc;strokeColor=#b85450;" parent="1" vertex="1">
          <mxGeometry x="800" y="310" width="120" height="60" as="geometry" />
        </mxCell>
        <mxCell id="sCZkjAEtWjabLYPIgtKf-36" value="" style="shape=table;html=1;whiteSpace=wrap;startSize=0;container=1;collapsible=0;childLayout=tableLayout;" parent="1" vertex="1">
          <mxGeometry x="1010" y="140" width="110" height="280" as="geometry" />
        </mxCell>
        <mxCell id="sCZkjAEtWjabLYPIgtKf-37" value="" style="shape=partialRectangle;html=1;whiteSpace=wrap;collapsible=0;dropTarget=0;pointerEvents=0;fillColor=none;top=0;left=0;bottom=0;right=0;points=[[0,0.5],[1,0.5]];portConstraint=eastwest;" parent="sCZkjAEtWjabLYPIgtKf-36" vertex="1">
          <mxGeometry width="110" height="40" as="geometry" />
        </mxCell>
        <mxCell id="sCZkjAEtWjabLYPIgtKf-38" value="" style="shape=partialRectangle;html=1;whiteSpace=wrap;connectable=0;overflow=hidden;fillColor=#dae8fc;top=0;left=0;bottom=0;right=0;strokeColor=#6c8ebf;" parent="sCZkjAEtWjabLYPIgtKf-37" vertex="1">
          <mxGeometry width="110" height="40" as="geometry" />
        </mxCell>
        <mxCell id="sCZkjAEtWjabLYPIgtKf-39" value="" style="shape=partialRectangle;html=1;whiteSpace=wrap;collapsible=0;dropTarget=0;pointerEvents=0;fillColor=none;top=0;left=0;bottom=0;right=0;points=[[0,0.5],[1,0.5]];portConstraint=eastwest;" parent="sCZkjAEtWjabLYPIgtKf-36" vertex="1">
          <mxGeometry y="40" width="110" height="40" as="geometry" />
        </mxCell>
        <mxCell id="sCZkjAEtWjabLYPIgtKf-40" value="" style="shape=partialRectangle;html=1;whiteSpace=wrap;connectable=0;overflow=hidden;fillColor=#dae8fc;top=0;left=0;bottom=0;right=0;strokeColor=#6c8ebf;" parent="sCZkjAEtWjabLYPIgtKf-39" vertex="1">
          <mxGeometry width="110" height="40" as="geometry" />
        </mxCell>
        <mxCell id="sCZkjAEtWjabLYPIgtKf-41" value="" style="shape=partialRectangle;html=1;whiteSpace=wrap;collapsible=0;dropTarget=0;pointerEvents=0;fillColor=none;top=0;left=0;bottom=0;right=0;points=[[0,0.5],[1,0.5]];portConstraint=eastwest;" parent="sCZkjAEtWjabLYPIgtKf-36" vertex="1">
          <mxGeometry y="80" width="110" height="40" as="geometry" />
        </mxCell>
        <mxCell id="sCZkjAEtWjabLYPIgtKf-42" value="" style="shape=partialRectangle;html=1;whiteSpace=wrap;connectable=0;overflow=hidden;top=0;left=0;bottom=0;right=0;" parent="sCZkjAEtWjabLYPIgtKf-41" vertex="1">
          <mxGeometry width="110" height="40" as="geometry" />
        </mxCell>
        <mxCell id="sCZkjAEtWjabLYPIgtKf-43" value="" style="shape=partialRectangle;html=1;whiteSpace=wrap;collapsible=0;dropTarget=0;pointerEvents=0;fillColor=none;top=0;left=0;bottom=0;right=0;points=[[0,0.5],[1,0.5]];portConstraint=eastwest;" parent="sCZkjAEtWjabLYPIgtKf-36" vertex="1">
          <mxGeometry y="120" width="110" height="40" as="geometry" />
        </mxCell>
        <mxCell id="sCZkjAEtWjabLYPIgtKf-44" value="newly loaded page" style="shape=partialRectangle;html=1;whiteSpace=wrap;connectable=0;overflow=hidden;top=0;left=0;bottom=0;right=0;fillColor=#f8cecc;strokeColor=#b85450;" parent="sCZkjAEtWjabLYPIgtKf-43" vertex="1">
          <mxGeometry width="110" height="40" as="geometry" />
        </mxCell>
        <mxCell id="sCZkjAEtWjabLYPIgtKf-45" value="" style="shape=partialRectangle;html=1;whiteSpace=wrap;collapsible=0;dropTarget=0;pointerEvents=0;fillColor=none;top=0;left=0;bottom=0;right=0;points=[[0,0.5],[1,0.5]];portConstraint=eastwest;" parent="sCZkjAEtWjabLYPIgtKf-36" vertex="1">
          <mxGeometry y="160" width="110" height="40" as="geometry" />
        </mxCell>
        <mxCell id="sCZkjAEtWjabLYPIgtKf-46" value="" style="shape=partialRectangle;html=1;whiteSpace=wrap;connectable=0;overflow=hidden;fillColor=#dae8fc;top=0;left=0;bottom=0;right=0;strokeColor=#6c8ebf;" parent="sCZkjAEtWjabLYPIgtKf-45" vertex="1">
          <mxGeometry width="110" height="40" as="geometry" />
        </mxCell>
        <mxCell id="sCZkjAEtWjabLYPIgtKf-47" value="" style="shape=partialRectangle;html=1;whiteSpace=wrap;collapsible=0;dropTarget=0;pointerEvents=0;fillColor=none;top=0;left=0;bottom=0;right=0;points=[[0,0.5],[1,0.5]];portConstraint=eastwest;" parent="sCZkjAEtWjabLYPIgtKf-36" vertex="1">
          <mxGeometry y="200" width="110" height="40" as="geometry" />
        </mxCell>
        <mxCell id="sCZkjAEtWjabLYPIgtKf-48" value="&lt;span style=&quot;color: rgb(0 , 0 , 0) ; font-family: &amp;#34;helvetica&amp;#34; ; font-size: 12px ; font-style: normal ; font-weight: 400 ; letter-spacing: normal ; text-align: center ; text-indent: 0px ; text-transform: none ; word-spacing: 0px ; background-color: rgb(248 , 249 , 250) ; display: inline ; float: none&quot;&gt;value of child&lt;/span&gt;" style="shape=partialRectangle;html=1;whiteSpace=wrap;connectable=0;overflow=hidden;top=0;left=0;bottom=0;right=0;fillColor=#f8cecc;strokeColor=#b85450;" parent="sCZkjAEtWjabLYPIgtKf-47" vertex="1">
          <mxGeometry width="110" height="40" as="geometry" />
        </mxCell>
        <mxCell id="sCZkjAEtWjabLYPIgtKf-49" value="" style="shape=partialRectangle;html=1;whiteSpace=wrap;collapsible=0;dropTarget=0;pointerEvents=0;fillColor=none;top=0;left=0;bottom=0;right=0;points=[[0,0.5],[1,0.5]];portConstraint=eastwest;" parent="sCZkjAEtWjabLYPIgtKf-36" vertex="1">
          <mxGeometry y="240" width="110" height="40" as="geometry" />
        </mxCell>
        <mxCell id="sCZkjAEtWjabLYPIgtKf-50" value="value of parent" style="shape=partialRectangle;html=1;whiteSpace=wrap;connectable=0;overflow=hidden;fillColor=#dae8fc;top=0;left=0;bottom=0;right=0;strokeColor=#6c8ebf;" parent="sCZkjAEtWjabLYPIgtKf-49" vertex="1">
          <mxGeometry width="110" height="40" as="geometry" />
        </mxCell>
        <mxCell id="2" value="&lt;font style=&quot;font-size: 16px&quot;&gt;RAM&lt;/font&gt;" style="text;html=1;align=center;verticalAlign=middle;resizable=0;points=[];autosize=1;" vertex="1" parent="1">
          <mxGeometry x="1040" y="110" width="50" height="20" as="geometry" />
        </mxCell>
      </root>
    </mxGraphModel>
  </diagram>
</mxfile>
